<?xml version="1.0" encoding="UTF-8"?>
<svg width="740px" height="200px" viewBox="0 0 740 200" version="1.1" xmlns="http://www.w3.org/2000/svg" xmlns:xlink="http://www.w3.org/1999/xlink">
    <title>Logo-ai blue</title>
    <g id="Logo-ai-blue" stroke="none" stroke-width="1" fill="none" fill-rule="evenodd">
        <path d="M144,43 L56,157 L56,43 L144,43 Z M100,101 L144,157 L100,157 L100,101 Z M321.946976,74.4257426 L335.126016,106.386139 L347.945629,74.4257426 L364.838762,74.4257426 L330.333638,157 L313.560314,157 L326.739354,124.564356 L304.694414,74.4257426 L321.946976,74.4257426 Z M261.20358,73.1188119 C267.673291,73.1188119 275.221287,75.4950495 279.174999,81.0792079 L279.174999,81.0792079 L279.174999,74.4257426 L294.870038,74.4257426 L294.870038,129.792079 L279.174999,129.792079 L279.174999,122.90099 C275.221287,128.366337 267.433672,130.861386 261.20358,130.861386 C246.826445,130.861386 233.767214,119.811881 233.767214,101.990099 C233.767214,84.1683168 246.826445,73.1188119 261.20358,73.1188119 Z M506.693163,73 C522.627821,73 536.765337,84.4059406 536.765337,101.990099 C536.765337,119.455446 522.627821,130.861386 506.693163,130.861386 C490.758505,130.861386 476.620988,119.455446 476.620988,101.990099 C476.620988,84.4059406 490.758505,73 506.693163,73 Z M649.841505,95.6455446 C655.592359,95.6455446 660.768128,98.4257426 663.284126,102.988119 L663.284126,102.988119 L663.284126,96.5009901 L667.88481,96.5009901 L667.88481,129.792079 L663.284126,129.792079 L663.284126,122.877228 C660.840013,127.439604 655.664245,130.647525 649.697734,130.647525 C640.568253,130.647525 632.876486,123.019802 632.876486,113.110891 C632.876486,103.415842 640.28071,95.6455446 649.841505,95.6455446 Z M621.590434,123.732673 C623.675119,123.732673 625.32849,125.158416 625.32849,127.154455 C625.32849,129.079208 623.675119,130.50495 621.590434,130.50495 C619.649521,130.50495 617.996151,129.079208 617.996151,127.154455 C617.996151,125.158416 619.649521,123.732673 621.590434,123.732673 Z M219.989126,73 C222.984362,73 226.339027,73.4752475 228.855026,74.7821782 L228.855026,74.7821782 L225.260742,89.6336634 C221.906077,87.8514851 219.15046,87.6138614 217.233508,87.6138614 C209.206274,87.6138614 203.695039,94.980198 203.695039,110.782178 L203.695039,110.782178 L203.695039,129.792079 L188,129.792079 L188,74.4257426 L203.57523,74.4257426 L203.57523,86.1881188 C206.690276,76.9207921 213.040177,73 219.989126,73 Z M442.595102,73 C456.612809,73 463.921186,82.7425743 463.921186,99.3762376 L463.921186,99.3762376 L463.921186,129.792079 L448.106337,129.792079 L448.106337,100.564356 C448.106337,91.8910891 443.553577,88.3267327 438.042342,88.3267327 C431.81225,88.2079208 427.3793,92.1287129 427.019872,100.445545 L427.019872,100.445545 L427.019872,129.792079 L411.324833,129.792079 L411.324833,100.445545 C411.324833,91.7722772 406.772073,88.3267327 401.500457,88.3267327 C395.869413,88.3267327 390.118558,90.9405941 390.118558,100.920792 L390.118558,100.920792 L390.118558,129.792079 L374.423519,129.792079 L374.423519,74.4257426 L390.118558,74.4257426 L390.118558,84.2871287 C391.795891,76.6831683 399.703315,73 405.933407,73 C414.20026,73 420.669971,76.9207921 423.904826,83.6930693 C428.217967,75.6138614 436.844248,73 442.595102,73 Z M582.77217,73 C597.388924,73 605.056729,82.7425743 604.93692,99.3762376 L604.93692,99.3762376 L604.93692,129.792079 L589.24188,129.792079 L589.24188,101.039604 C589.24188,92.2475248 583.970264,88.3267327 578.578838,88.3267327 C572.947794,88.3267327 565.998845,91.2970297 565.998845,101.39604 L565.998845,101.39604 L565.998845,129.792079 L550.303806,129.792079 L550.303806,74.4257426 L565.998845,74.4257426 L565.998845,83.6930693 C568.395034,76.2079208 577.260934,73 582.77217,73 Z M684.706058,96.5009901 L684.706058,129.792079 L680.105375,129.792079 L680.105375,96.5009901 L684.706058,96.5009901 Z M650.200933,99.9940594 C643.156137,99.9940594 637.405283,105.982178 637.405283,113.110891 C637.405283,120.310891 643.156137,126.29901 650.272819,126.29901 C657.24573,126.29901 663.284126,120.738614 663.284126,113.253465 C663.284126,105.483168 656.958187,99.9940594 650.200933,99.9940594 Z M264.198816,87.7326733 C256.291392,87.7326733 249.701872,93.7920792 249.701872,101.990099 C249.701872,110.069307 256.291392,116.366337 264.198816,116.366337 C271.866622,116.366337 278.695761,110.425743 278.695761,101.990099 C278.695761,93.4356436 271.507193,87.7326733 264.198816,87.7326733 Z M506.693163,87.4950495 C498.905548,87.4950495 492.555646,93.3168317 492.555646,101.990099 C492.555646,110.544554 498.905548,116.366337 506.693163,116.366337 C514.480778,116.366337 520.830679,110.544554 520.830679,101.990099 C520.830679,93.3168317 514.480778,87.4950495 506.693163,87.4950495 Z M682.405716,80.960396 C684.418515,80.960396 686,82.3148515 686,84.239604 C686,86.0930693 684.418515,87.4475248 682.405716,87.4475248 C680.536689,87.4475248 678.883318,86.0930693 678.883318,84.239604 C678.883318,82.3148515 680.536689,80.960396 682.405716,80.960396 Z M89,65 C84.0294373,65 80,69.0294373 80,74 C80,78.9705627 84.0294373,83 89,83 C93.9705627,83 98,78.9705627 98,74 C98,69.0294373 93.9705627,65 89,65 Z" id="Combined-Shape" fill="#0460DF" fill-rule="nonzero"></path>
    </g>
</svg>